<?xml version="1.0" standalone="no"?>
<!DOCTYPE svg PUBLIC "-//W3C//DTD SVG 20010904//EN"
 "http://www.w3.org/TR/2001/REC-SVG-20010904/DTD/svg10.dtd">
<svg version="1.0" xmlns="http://www.w3.org/2000/svg"
 width="512.000000pt" height="512.000000pt" viewBox="0 0 512.000000 512.000000"
 preserveAspectRatio="xMidYMid meet">

<g transform="translate(0.000000,512.000000) scale(0.100000,-0.100000)"
fill="#000000" stroke="none">
<path d="M1716 3663 c-7 -16 -76 -426 -152 -913 -75 -487 -141 -889 -145 -894
-12 -14 -93 39 -138 90 -29 33 -41 56 -41 78 0 48 -18 103 -44 133 -18 21 -34
27 -78 31 -50 4 -57 2 -76 -23 -29 -37 -28 -80 5 -145 57 -115 204 -226 353
-265 72 -19 217 -19 294 1 64 16 184 71 226 104 20 16 9 14 -65 -11 -105 -36
-215 -50 -215 -28 0 30 140 1043 145 1047 3 3 7 3 9 1 2 -2 123 -242 269 -534
275 -551 432 -852 460 -886 23 -26 42 -24 65 9 36 51 245 454 484 936 132 263
243 475 247 470 4 -5 38 -236 75 -514 37 -278 70 -514 73 -524 5 -18 1 -19
-59 -13 -53 5 -133 26 -233 62 -56 19 101 -69 170 -96 68 -27 96 -33 192 -37
95 -4 122 -1 185 18 132 39 229 104 302 201 94 125 81 229 -28 229 -78 0 -126
-62 -126 -162 0 -31 -8 -46 -53 -91 -51 -52 -137 -108 -137 -88 0 24 -271
1751 -280 1782 -21 77 -64 75 -108 -4 -16 -29 -188 -400 -383 -824 -194 -425
-356 -770 -360 -765 -4 4 -170 363 -369 797 -199 435 -373 805 -387 823 -30
39 -58 41 -77 5z"/>
<path d="M220 2115 c0 -9 9 -32 19 -53 84 -165 340 -305 738 -406 129 -33 137
-32 41 4 -119 44 -184 83 -303 181 -241 199 -495 339 -495 274z"/>
<path d="M4840 2123 c-98 -35 -237 -125 -421 -273 -125 -101 -216 -156 -312
-190 -84 -30 -30 -23 104 14 270 75 458 163 580 273 43 39 95 116 104 156 6
24 4 27 -16 26 -13 0 -31 -3 -39 -6z"/>
<path d="M720 2027 c0 -21 25 -63 61 -102 51 -55 128 -103 231 -144 71 -28
246 -81 265 -81 4 1 -24 16 -63 34 -39 18 -116 69 -171 113 -126 100 -241 172
-287 180 -20 3 -36 3 -36 0z"/>
<path d="M4295 1997 c-77 -41 -109 -64 -222 -154 -50 -40 -124 -89 -165 -108
-40 -19 -70 -34 -67 -35 3 0 55 14 115 31 136 38 294 112 357 169 40 35 87
103 87 125 0 14 -52 1 -105 -28z"/>
</g>
</svg>
